<?xml version="1.0" encoding="UTF-8" standalone="no"?>
<!-- Created with Inkscape (http://www.inkscape.org/) -->

<svg
   xmlns:dc="http://purl.org/dc/elements/1.1/"
   xmlns:cc="http://creativecommons.org/ns#"
   xmlns:rdf="http://www.w3.org/1999/02/22-rdf-syntax-ns#"
   xmlns:svg="http://www.w3.org/2000/svg"
   xmlns="http://www.w3.org/2000/svg"
   xmlns:sodipodi="http://sodipodi.sourceforge.net/DTD/sodipodi-0.dtd"
   xmlns:inkscape="http://www.inkscape.org/namespaces/inkscape"
   width="147.64401mm"
   height="62.078342mm"
   viewBox="0 0 523.14808 219.96263"
   id="svg4511"
   version="1.1"
   inkscape:version="0.92.3 (2405546, 2018-03-11)"
   sodipodi:docname="logo_danilo.svg"
   inkscape:export-filename="/mnt/75c3ca5b-c3ef-4360-a2bc-9ac1bf30e3a3/Dropbox/MeuNegocio/logo_hq.png"
   inkscape:export-xdpi="499.99402"
   inkscape:export-ydpi="499.99402">
  <defs
     id="defs4513" />
  <sodipodi:namedview
     id="base"
     pagecolor="#ffffff"
     bordercolor="#666666"
     borderopacity="1.0"
     inkscape:pageopacity="0.0"
     inkscape:pageshadow="2"
     inkscape:zoom="1"
     inkscape:cx="-52.074242"
     inkscape:cy="342.08288"
     inkscape:document-units="px"
     inkscape:current-layer="layer1"
     showgrid="false"
     fit-margin-top="0"
     fit-margin-left="0"
     fit-margin-right="0"
     fit-margin-bottom="0"
     inkscape:window-width="1920"
     inkscape:window-height="1026"
     inkscape:window-x="0"
     inkscape:window-y="0"
     inkscape:window-maximized="1"
     showguides="false" />
  <metadata
     id="metadata4516">
    <rdf:RDF>
      <cc:Work
         rdf:about="">
        <dc:format>image/svg+xml</dc:format>
        <dc:type
           rdf:resource="http://purl.org/dc/dcmitype/StillImage" />
        <dc:title />
      </cc:Work>
    </rdf:RDF>
  </metadata>
  <g
     inkscape:label="Camada 1"
     inkscape:groupmode="layer"
     id="layer1"
     transform="translate(-128.55913,-180.95231)">
    <ellipse
       style="opacity:1;fill:#1b5361;fill-opacity:1;stroke:none;stroke-width:5.3079915;stroke-miterlimit:4;stroke-dasharray:none;stroke-opacity:1"
       id="ellipse1043"
       cx="137.27156"
       cy="-44.969318"
       rx="100.262"
       ry="99.409248" />
    <g
       style="font-style:normal;font-variant:normal;font-weight:bold;font-stretch:normal;font-size:40px;line-height:80.00000119%;font-family:sans-serif;-inkscape-font-specification:'sans-serif Bold';letter-spacing:0px;word-spacing:0px;fill-opacity:1;stroke:none;stroke-width:1px;stroke-linecap:butt;stroke-linejoin:miter;stroke-opacity:1"
       id="text4455">
      <path
         d="m 360.06768,247.81364 c 0,-2.03 0.56,-3.08 5.6,-3.08 4.13,0 7.49,1.19 7.49,9.52 0,7.07 -3.5,10.01 -7.56,10.01 -1.75,0 -4.62,-0.21 -5.53,-0.7 z m -9.94,8.05 v 17.15 c 0,5.25 -0.28,10.22 -0.84,14 l 0.07,0.21 c 0,0 3.36,-0.21 5.81,-0.21 2.38,0 5.6,0.21 5.6,0.21 l 0.14,-0.21 c -0.56,-3.99 -0.84,-8.75 -0.84,-14 v -5.88 c 1.54,0.49 3.85,0.7 6.3,0.7 12.74,0 17.36,-7.63 17.36,-14.84 0,-2.52 -0.98,-6.51 -4.9,-9.24 -2.52,-1.68 -6.3,-2.38 -11.27,-2.38 -1.82,0 -10.29,0.49 -12.39,0.49 -2.38,0 -5.74,-0.21 -5.74,-0.21 l -0.14,0.21 c 0.56,3.99 0.84,8.75 0.84,14 z"
         style="font-style:normal;font-variant:normal;font-weight:bold;font-stretch:normal;font-size:70px;line-height:80.00000119%;font-family:'Linux Biolinum O';-inkscape-font-specification:'Linux Biolinum O Bold'"
         id="path6929"
         inkscape:connector-curvature="0" />
      <path
         d="m 401.20361,262.58364 -0.35,-0.21 c 0,-1.54 -0.07,-4.48 -0.14,-5.11 -0.14,-0.42 -0.21,-0.7 -0.63,-0.7 -2.03,0.35 -6.58,0.35 -9.03,0.21 l -0.14,0.21 c 0.49,3.01 0.77,8.4 0.77,13.58 v 3.85 c 0,5.25 -0.14,8.82 -0.7,12.6 l 0.07,0.21 c 0,0 2.24,-0.21 4.69,-0.21 2.38,0 5.74,0.21 5.74,0.21 l 0.14,-0.21 c -0.56,-3.99 -0.7,-7.28 -0.7,-12.6 v -5.11 c 0,-5.39 4.76,-6.23 5.88,-6.23 1.33,0 2.8,0.35 4.06,1.33 l 1.26,-0.14 1.4,-7.21 -0.28,-0.28 c -1.19,-0.35 -2.31,-0.49 -3.57,-0.49 -3.29,0 -6.65,3.57 -8.47,6.3 z"
         style="font-style:normal;font-variant:normal;font-weight:bold;font-stretch:normal;font-size:70px;line-height:80.00000119%;font-family:'Linux Biolinum O';-inkscape-font-specification:'Linux Biolinum O Bold'"
         id="path6931"
         inkscape:connector-curvature="0" />
      <path
         d="m 417.30799,272.66364 c 0,9.31 6.51,15.05 16.94,15.05 10.71,0 16.94,-5.95 16.94,-15.68 0,-8.82 -4.97,-15.75 -16.8,-15.75 -10.01,0 -17.08,5.53 -17.08,16.38 z m 16.59,-12.88 c 5.95,0 7.35,4.41 7.35,14.14 0,8.05 -2.87,10.29 -6.02,10.29 -7.28,0 -7.98,-7.77 -7.98,-13.16 0,-6.09 0.63,-11.27 6.65,-11.27 z"
         style="font-style:normal;font-variant:normal;font-weight:bold;font-stretch:normal;font-size:70px;line-height:80.00000119%;font-family:'Linux Biolinum O';-inkscape-font-specification:'Linux Biolinum O Bold'"
         id="path6933"
         inkscape:connector-curvature="0" />
      <path
         d="m 469.62643,260.48364 h 2.66 c 1.68,0 4.06,0.07 5.04,0.14 0.07,-1.05 0.42,-2.24 0.84,-3.29 l -0.35,-0.56 c -1.33,0.14 -3.29,0.21 -4.9,0.21 h -3.29 v -0.7 c 0,-1.75 -0.49,-5.18 -0.49,-6.72 0,-3.85 2.1,-6.58 5.88,-6.58 2.03,0 3.92,1.54 4.48,3.5 l 2.1,-0.07 c 0.21,-1.96 0.98,-5.6 1.61,-7.07 l -0.07,-0.21 c -0.56,-0.35 -3.08,-0.98 -5.25,-0.98 -5.32,0 -9.52,1.82 -12.46,4.83 -3.08,3.22 -4.83,7.63 -4.83,11.9 v 2.1 c -1.47,0 -2.94,-0.07 -3.78,-0.21 -0.42,1.19 -0.91,2.31 -1.54,3.36 l 0.35,0.49 c 1.19,-0.07 3.36,-0.07 4.97,-0.14 v 12.53 c 0,5.25 0,10.43 -0.49,14 l 0.07,0.21 c 0,0 2.8,-0.21 5.25,-0.21 2.38,0 4.83,0.21 4.83,0.21 l 0.14,-0.21 c -0.49,-4.06 -0.49,-8.68 -0.56,-14 z"
         style="font-style:normal;font-variant:normal;font-weight:bold;font-stretch:normal;font-size:70px;line-height:80.00000119%;font-family:'Linux Biolinum O';-inkscape-font-specification:'Linux Biolinum O Bold'"
         id="path6935"
         inkscape:connector-curvature="0" />
      <path
         d="m 491.76283,269.16364 c 0.21,-3.43 1.05,-5.81 2.1,-7.28 0.91,-1.19 2.24,-2.1 4.27,-2.1 2.8,0 4.55,3.29 4.55,9.38 z m 19.25,10.36 c -3.29,2.66 -6.65,2.87 -9.59,2.87 -3.43,0 -5.95,-0.91 -7.63,-2.73 -1.54,-1.68 -2.31,-4.13 -2.31,-7.35 h 6.93 c 7,0 13.02,0.14 13.02,0.14 l 0.42,-0.42 c 0,-8.75 -2.45,-15.75 -13.23,-15.75 -3.85,0 -8.05,1.26 -10.85,3.5 -3.36,2.8 -5.67,7.07 -5.67,12.81 0,4.13 1.47,8.54 4.41,11.48 2.38,2.52 6.51,3.64 11.76,3.64 5.04,0 10.01,-1.61 13.86,-6.02 0,-0.91 -0.42,-2.17 -1.12,-2.17 z"
         style="font-style:normal;font-variant:normal;font-weight:bold;font-stretch:normal;font-size:70px;line-height:80.00000119%;font-family:'Linux Biolinum O';-inkscape-font-specification:'Linux Biolinum O Bold'"
         id="path6937"
         inkscape:connector-curvature="0" />
      <path
         d="m 518.97971,279.10364 -1.12,6.72 c 3.78,1.4 8.4,1.89 10.92,1.89 9.1,0 12.95,-4.41 12.95,-9.24 0,-6.3 -4.97,-8.26 -9.94,-10.92 -2.31,-1.19 -4.2,-2.45 -4.2,-4.69 0,-1.96 0.7,-3.43 3.43,-3.43 3.43,0 5.46,3.29 6.37,5.25 l 1.89,-0.07 1.33,-6.3 -0.14,-0.21 c -1.89,-1.05 -5.95,-1.82 -9.31,-1.82 -6.3,0 -11.83,3.08 -11.83,8.47 0,4.9 3.43,7.42 7.42,9.59 5.11,2.8 6.65,4.06 6.65,6.86 0,3.29 -2.17,3.43 -4.83,3.43 -2.52,0 -5.39,-1.54 -7.49,-5.6 z"
         style="font-style:normal;font-variant:normal;font-weight:bold;font-stretch:normal;font-size:70px;line-height:80.00000119%;font-family:'Linux Biolinum O';-inkscape-font-specification:'Linux Biolinum O Bold'"
         id="path6939"
         inkscape:connector-curvature="0" />
      <path
         d="m 548.37424,279.10364 -1.12,6.72 c 3.78,1.4 8.4,1.89 10.92,1.89 9.1,0 12.95,-4.41 12.95,-9.24 0,-6.3 -4.97,-8.26 -9.94,-10.92 -2.31,-1.19 -4.2,-2.45 -4.2,-4.69 0,-1.96 0.7,-3.43 3.43,-3.43 3.43,0 5.46,3.29 6.37,5.25 l 1.89,-0.07 1.33,-6.3 -0.14,-0.21 c -1.89,-1.05 -5.95,-1.82 -9.31,-1.82 -6.3,0 -11.83,3.08 -11.83,8.47 0,4.9 3.43,7.42 7.42,9.59 5.11,2.8 6.65,4.06 6.65,6.86 0,3.29 -2.17,3.43 -4.83,3.43 -2.52,0 -5.39,-1.54 -7.49,-5.6 z"
         style="font-style:normal;font-variant:normal;font-weight:bold;font-stretch:normal;font-size:70px;line-height:80.00000119%;font-family:'Linux Biolinum O';-inkscape-font-specification:'Linux Biolinum O Bold'"
         id="path6941"
         inkscape:connector-curvature="0" />
      <path
         d="m 576.85877,272.66364 c 0,9.31 6.51,15.05 16.94,15.05 10.71,0 16.94,-5.95 16.94,-15.68 0,-8.82 -4.97,-15.75 -16.8,-15.75 -10.01,0 -17.08,5.53 -17.08,16.38 z m 16.59,-12.88 c 5.95,0 7.35,4.41 7.35,14.14 0,8.05 -2.87,10.29 -6.02,10.29 -7.28,0 -7.98,-7.77 -7.98,-13.16 0,-6.09 0.63,-11.27 6.65,-11.27 z"
         style="font-style:normal;font-variant:normal;font-weight:bold;font-stretch:normal;font-size:70px;line-height:80.00000119%;font-family:'Linux Biolinum O';-inkscape-font-specification:'Linux Biolinum O Bold'"
         id="path6943"
         inkscape:connector-curvature="0" />
      <path
         d="m 629.38721,262.58364 -0.35,-0.21 c 0,-1.54 -0.07,-4.48 -0.14,-5.11 -0.14,-0.42 -0.21,-0.7 -0.63,-0.7 -2.03,0.35 -6.58,0.35 -9.03,0.21 l -0.14,0.21 c 0.49,3.01 0.77,8.4 0.77,13.58 v 3.85 c 0,5.25 -0.14,8.82 -0.7,12.6 l 0.07,0.21 c 0,0 2.24,-0.21 4.69,-0.21 2.38,0 5.74,0.21 5.74,0.21 l 0.14,-0.21 c -0.56,-3.99 -0.7,-7.28 -0.7,-12.6 v -5.11 c 0,-5.39 4.76,-6.23 5.88,-6.23 1.33,0 2.8,0.35 4.06,1.33 l 1.26,-0.14 1.4,-7.21 -0.28,-0.28 c -1.19,-0.35 -2.31,-0.49 -3.57,-0.49 -3.29,0 -6.65,3.57 -8.47,6.3 z"
         style="font-style:normal;font-variant:normal;font-weight:bold;font-stretch:normal;font-size:70px;line-height:80.00000119%;font-family:'Linux Biolinum O';-inkscape-font-specification:'Linux Biolinum O Bold'"
         id="path6945"
         inkscape:connector-curvature="0" />
      <path
         d="m 360.76768,335.94364 v -31.08 c 0,-2.45 1.68,-3.5 5.11,-3.5 15.12,0 16.1,10.29 16.1,21.07 0,14.14 -4.48,17.01 -14.35,17.01 -5.39,0 -6.86,-1.26 -6.86,-3.5 z m -4.9,-38.08 c -2.38,0 -5.88,-0.21 -5.88,-0.21 l -0.14,0.21 c 0.56,3.99 0.84,8.75 0.84,14 v 17.15 c 0,5.25 -0.28,10.22 -0.84,14 l 0.07,0.21 c 0,0 3.5,-0.21 5.95,-0.21 5.39,0 7.77,0.14 13.93,0.14 9.87,0 23.45,-5.18 23.45,-22.4 0,-13.72 -11.27,-23.1 -24.71,-23.1 -4.97,0 -7.77,0.21 -12.67,0.21 z"
         style="font-style:normal;font-variant:normal;font-weight:bold;font-stretch:normal;font-size:70px;line-height:80.00000119%;font-family:'Linux Biolinum O';-inkscape-font-specification:'Linux Biolinum O Bold'"
         id="path6947"
         inkscape:connector-curvature="0" />
      <path
         d="m 418.70799,327.47364 -0.14,6.51 c 0,0.91 -0.56,2.66 -1.05,3.15 -1.61,1.61 -3.22,2.38 -5.18,2.38 -2.1,0 -3.64,-2.1 -3.64,-3.99 0,-2.52 0.84,-5.6 4.41,-6.58 z m 8.82,9.94 c 0,-2.03 0.28,-13.02 0.28,-13.79 0,-4.2 -0.91,-6.79 -2.8,-8.54 -2.24,-1.96 -6.44,-2.8 -9.8,-2.8 -5.04,0 -11.76,2.24 -13.44,3.71 l -0.21,0.28 1.4,5.25 2.31,0.07 c 2.38,-3.5 5.46,-5.53 8.61,-5.53 3.08,0 4.83,1.75 4.83,7.14 0,0.49 -0.21,0.77 -0.42,0.84 l -8.19,2.17 c -6.72,1.61 -10.78,5.18 -10.78,9.94 0,4.83 4.69,7.56 9.59,7.56 2.73,0 6.44,-0.91 9.59,-4.06 h 0.14 c 0.98,2.87 2.52,4.06 5.53,4.06 2.73,0 6.23,-0.7 8.33,-2.31 -0.14,-0.56 -0.28,-1.12 -0.7,-1.47 -2.8,0 -4.27,-0.21 -4.27,-2.52 z"
         style="font-style:normal;font-variant:normal;font-weight:bold;font-stretch:normal;font-size:70px;line-height:80.00000119%;font-family:'Linux Biolinum O';-inkscape-font-specification:'Linux Biolinum O Bold'"
         id="path6949"
         inkscape:connector-curvature="0" />
      <path
         d="m 468.87174,330.41364 v -7.77 c 0,-7.35 -3.43,-10.36 -9.73,-10.36 -3.57,0 -7.77,2.17 -10.99,6.3 l -0.35,-0.21 c 0,-1.54 -0.07,-4.48 -0.14,-5.11 -0.14,-0.42 -0.21,-0.7 -0.63,-0.7 -2.03,0.35 -6.58,0.35 -9.03,0.21 l -0.14,0.21 c 0.49,3.01 0.77,8.4 0.77,13.58 v 3.85 c 0,5.25 -0.21,8.89 -0.77,12.6 l 0.14,0.21 c 0,0 3.29,-0.21 5.74,-0.21 2.38,0 4.34,0.21 4.34,0.21 l 0.21,-0.21 c -0.35,-3.99 -0.42,-7.28 -0.42,-12.6 v -7.14 c 2.66,-3.5 5.6,-5.6 8.12,-5.6 1.89,0 3.64,1.4 3.64,6.51 v 6.23 c 0,5.25 0,8.89 -0.42,12.6 l 0.14,0.21 c 0,0 2.24,-0.21 4.69,-0.21 2.38,0 5.46,0.21 5.46,0.21 l 0.14,-0.21 c -0.63,-3.99 -0.77,-7.28 -0.77,-12.6 z"
         style="font-style:normal;font-variant:normal;font-weight:bold;font-stretch:normal;font-size:70px;line-height:80.00000119%;font-family:'Linux Biolinum O';-inkscape-font-specification:'Linux Biolinum O Bold'"
         id="path6951"
         inkscape:connector-curvature="0" />
      <path
         d="m 480.95439,300.52364 c 0,2.66 2.17,4.83 4.97,4.83 2.8,0 4.97,-2.17 4.97,-4.83 0,-2.66 -2.17,-4.83 -4.97,-4.83 -2.8,0 -4.97,2.17 -4.97,4.83 z m 0.35,26.04 v 3.85 c 0,5.25 -0.14,8.82 -0.7,12.6 l 0.14,0.21 c 1.4,-0.14 2.73,-0.21 5.18,-0.21 2.38,0 3.85,0.07 5.18,0.21 l 0.14,-0.21 c -0.56,-3.99 -0.7,-7.28 -0.7,-12.6 v -4.62 c 0,-5.25 0.21,-8.26 0.7,-12.46 0,-0.49 -0.21,-0.7 -0.63,-0.7 -0.98,0.14 -2.87,0.35 -4.83,0.35 -1.82,0 -3.78,-0.07 -4.97,-0.21 l -0.21,0.28 c 0.56,3.01 0.7,8.26 0.7,13.51 z"
         style="font-style:normal;font-variant:normal;font-weight:bold;font-stretch:normal;font-size:70px;line-height:80.00000119%;font-family:'Linux Biolinum O';-inkscape-font-specification:'Linux Biolinum O Bold'"
         id="path6953"
         inkscape:connector-curvature="0" />
      <path
         d="m 502.89939,329.01364 c 0,5.25 -0.28,10.29 -0.84,14 l 0.07,0.21 c 0,0 2.94,-0.21 5.39,-0.21 2.38,0 5.32,0.21 5.32,0.21 l 0.14,-0.21 c -0.63,-3.99 -0.84,-8.68 -0.84,-14 v -21 c 0,-5.25 0.28,-8.82 0.84,-13.16 0,-0.49 -0.35,-0.7 -0.77,-0.7 -1.82,0.7 -7.21,2.1 -10.01,2.31 l -0.14,0.21 c 0.49,3.01 0.84,7.84 0.84,13.16 z"
         style="font-style:normal;font-variant:normal;font-weight:bold;font-stretch:normal;font-size:70px;line-height:80.00000119%;font-family:'Linux Biolinum O';-inkscape-font-specification:'Linux Biolinum O Bold'"
         id="path6955"
         inkscape:connector-curvature="0" />
      <path
         d="m 521.07752,328.66364 c 0,9.31 6.51,15.05 16.94,15.05 10.71,0 16.94,-5.95 16.94,-15.68 0,-8.82 -4.97,-15.75 -16.8,-15.75 -10.01,0 -17.08,5.53 -17.08,16.38 z m 16.59,-12.88 c 5.95,0 7.35,4.41 7.35,14.14 0,8.05 -2.87,10.29 -6.02,10.29 -7.28,0 -7.98,-7.77 -7.98,-13.16 0,-6.09 0.63,-11.27 6.65,-11.27 z"
         style="font-style:normal;font-variant:normal;font-weight:bold;font-stretch:normal;font-size:70px;line-height:80.00000119%;font-family:'Linux Biolinum O';-inkscape-font-specification:'Linux Biolinum O Bold'"
         id="path6957"
         inkscape:connector-curvature="0" />
    </g>
    <path
       inkscape:connector-curvature="0"
       id="path6959"
       d="m 224.28322,191.12364 c -23.23548,0.0308 -45.73218,8.16732 -63.61172,23.00682 3.84031,-1.10469 7.92062,-2.25054 12.51317,-3.48111 51.94004,-13.91728 105.20725,10.6618 119.41444,63.68393 17.83157,66.54818 -29.28629,100.62793 -67.42975,110.84845 -6.27607,1.68166 -11.49168,3.03808 -16.23277,4.24909 5.07409,0.83225 10.20491,1.27116 15.34663,1.3128 55.12359,1.5e-4 99.81013,-44.68639 99.80998,-99.80998 1.6e-4,-55.1236 -44.68638,-99.81015 -99.80998,-99.81 z"
       style="opacity:1;fill:#37abc8;fill-opacity:1;stroke:none;stroke-width:30;stroke-linecap:round;stroke-linejoin:round;stroke-miterlimit:4;stroke-dasharray:none;stroke-opacity:1"
       sodipodi:nodetypes="ccsssccsc" />
    <path
       style="opacity:1;fill:#37abc8;fill-opacity:1;stroke:none;stroke-width:30;stroke-linecap:round;stroke-linejoin:round;stroke-miterlimit:4;stroke-dasharray:none;stroke-opacity:1"
       d="m 191.07158,224.19088 c -7.13745,-0.0138 -15.19392,1.10254 -24.32401,3.54894 -13.25553,3.55181 -18.66037,9.35075 -16.12336,18.81899 l 32.18328,120.11024 c 2.31955,8.65668 9.30521,12.00539 30.13532,6.42398 38.14347,-10.22051 52.4836,-25.95192 37.84146,-80.59716 -9.41864,-35.15083 -21.17053,-68.23035 -59.71269,-68.30499 z"
       id="path4281"
       inkscape:connector-curvature="0"
       sodipodi:nodetypes="sssssss" />
    <ellipse
       ry="99.409248"
       rx="100.262"
       cy="-44.969318"
       cx="118.52156"
       id="ellipse1014"
       style="opacity:1;fill:#37abc8;fill-opacity:1;stroke:none;stroke-width:5.3079915;stroke-miterlimit:4;stroke-dasharray:none;stroke-opacity:1" />
    <path
       sodipodi:type="star"
       style="opacity:0.481;fill:#1b5361;fill-opacity:1;stroke:none;stroke-width:5.24437523;stroke-miterlimit:4;stroke-dasharray:none;stroke-opacity:1"
       id="path1045"
       sodipodi:sides="3"
       sodipodi:cx="107.02762"
       sodipodi:cy="-44.969318"
       sodipodi:r1="45.97575"
       sodipodi:r2="22.987875"
       sodipodi:arg1="0"
       sodipodi:arg2="1.0471976"
       inkscape:flatsided="false"
       inkscape:rounded="0"
       inkscape:randomized="0"
       d="m 153.00337,-44.969318 -34.48182,19.908084 -34.481807,19.908083 0,-39.816169 0,-39.816166 34.481817,19.908084 z"
       inkscape:transform-center-x="-11.493937"
       inkscape:transform-center-y="-1.0622414e-06" />
    <g
       id="g1033"
       transform="matrix(1.0046729,0,0,1.0046729,-31.579667,111.38255)">
      <path
         sodipodi:nodetypes="cccccccccssccsc"
         inkscape:connector-curvature="0"
         id="path982"
         d="m -71.98437,-57.78001 c 4.74109,-1.21102 9.95623,-2.56822 16.2323,-4.24988 38.14346,-10.22052 85.26199,-44.30021 67.43042,-110.84839 -14.2071902,-53.02215 -67.47585,-77.60137 -119.4159,-63.68409 -4.59255,1.23056 -8.67312,2.37615 -12.51342,3.48083 -44.97851,15.21562 -101.44248,32.99363 -115.06533,65.52172 -11.54431,34.07332 8.78384,93.881756 35.8139,114.062208 27.47476,19.97874 79.32612,6.149976 127.51803,-4.282398 z m -17.8656,-165.23988 c 38.54216,0.0746 50.29389,33.15301 59.71253,68.30384 14.64213,54.64525 0.30288,70.37704 -37.84058,80.59754 -20.83012,5.58142 -27.81595,2.23334 -30.1355,-6.42334 l -32.18445,-120.11171 c -2.53701,-9.46823 2.86874,-15.26592 16.12427,-18.81774 9.13009,-2.4464 17.18628,-3.56239 24.32373,-3.54859 z"
         style="opacity:1;fill:#e9afaf;fill-opacity:1;stroke:none;stroke-width:30;stroke-linecap:round;stroke-linejoin:round;stroke-miterlimit:4;stroke-dasharray:none;stroke-opacity:1" />
      <path
         sodipodi:nodetypes="cssccsc"
         inkscape:connector-curvature="0"
         id="path982-3"
         d="m -89.84997,-223.01989 c 38.54215,0.0746 50.29389,33.15301 59.71253,68.30384 14.64212,54.64525 0.30287,70.377041 -37.84058,80.597541 -20.83012,5.58142 -27.81595,2.23334 -30.1355,-6.42334 l -32.18445,-120.111711 c -2.53701,-9.46823 2.86874,-15.26592 16.12427,-18.81774 9.13009,-2.4464 17.18628,-3.56239 24.32373,-3.54859 z"
         style="opacity:1;fill:#e3dbdb;fill-opacity:1;stroke:none;stroke-width:30;stroke-linecap:round;stroke-linejoin:round;stroke-miterlimit:4;stroke-dasharray:none;stroke-opacity:1" />
    </g>
  </g>
</svg>
